<?xml version="1.0" encoding="iso-8859-1"?>
<!-- Generator: Adobe Illustrator 18.1.1, SVG Export Plug-In . SVG Version: 6.00 Build 0)  -->
<svg version="1.1" id="Capa_1" xmlns="http://www.w3.org/2000/svg" xmlns:xlink="http://www.w3.org/1999/xlink" x="0px" y="0px"
	 viewBox="0 0 26 26" style="enable-background:new 0 0 26 26;" xml:space="preserve">
<g>
	<g>
		<path style="fill:#030104;" d="M11.91,24.631c-0.448,0.035-0.834,0.028-0.922-0.013c-0.072-0.034,0.083-0.196,0.276-0.355
			c0.224-0.185,0.02-0.374-0.088-0.47c-0.362-0.322-0.706-0.672-1.03-1.045c-0.08-0.092-0.268-0.279-0.627-0.273
			c-0.57,0.01-1.291,0.035-1.382-0.008c-0.066-0.031,0.314-0.348,0.685-0.646c0.322-0.259,0.192-0.592,0.099-0.745
			c-0.299-0.491-0.568-1.008-0.809-1.548c-0.05-0.112-0.202-0.325-0.547-0.331c-0.541-0.008-1.156,0.029-1.24-0.01
			c-0.066-0.032,0.411-0.482,0.892-0.881c0.111-0.092,0.287-0.306,0.181-0.74c-0.151-0.625-0.319-1.256-0.422-1.912
			c-0.025-0.16-0.16-0.482-0.519-0.473c-0.491,0.015-0.987,0.021-1.062-0.014c-0.065-0.031,0.426-0.471,0.966-0.873
			c0.146-0.107,0.376-0.186,0.419-0.748c0.012-0.159-0.01-0.319-0.01-0.48c0-0.541,0.019-1.074,0.081-1.597
			c0.058-0.485-0.234-0.583-0.395-0.575c-0.495,0.025-0.997,0.05-1.07,0.015C5.314,10.875,6.029,10.36,6.72,9.935
			C6.859,9.851,7.097,9.688,7.227,9.25c0.18-0.605,0.333-1.21,0.558-1.781c0.203-0.516-0.212-0.602-0.422-0.598
			C6.83,6.881,6.396,6.909,6.311,6.87c-0.08-0.038,0.834-0.565,1.686-0.919c0.198-0.083,0.559-0.243,0.898-0.785
			c0.256-0.408,0.538-0.793,0.803-1.182c0.261-0.382-0.027-0.433-0.2-0.433c-0.656,0-1.227,0.051-1.326,0.003
			C8.08,3.512,9.531,2.953,10.403,2.733c0.19-0.048,0.455-0.118,0.804-0.405c0.297-0.245,0.578-0.508,0.889-0.726
			c0.276-0.194,0.052-0.234-0.074-0.236c-0.724-0.01-1.383,0.053-1.491,0.002c-0.104-0.049,1.849-0.402,2.617-0.455
			C13.823,0.529,14.974,0.215,15.719,0c-0.193,0-0.356,0.001-0.419,0.006h-4.334c-0.244,0.031-1.287-0.014-1.476,0
			C8.999,0.059,8.66,0.109,8.189,0.298c-0.31,0.125-0.411,0.524-0.2,0.609C8.223,1.001,9.114,1.31,9.005,1.365
			c-0.09,0.045-1.268,0-2.007-0.051C6.704,1.293,6.296,1.267,6.124,1.392c-0.438,0.318-0.302,0.249-0.71,0.66
			C5.252,2.215,5.211,2.567,5.445,2.677C5.67,2.781,6.761,3.51,6.615,3.583C6.49,3.646,4.969,3.753,4.597,3.718
			C4.229,3.684,4.035,3.705,3.891,3.91c-0.357,0.509-0.395,0.689-0.69,1.286c-0.117,0.236-0.107,0.66,0.071,0.751
			c0.178,0.09,1.018,0.49,1.53,0.917C4.224,6.817,3.106,7.052,2.856,7.052S2.407,7.065,2.319,7.329
			c-0.225,0.67-0.266,0.924-0.41,1.631C1.853,9.243,1.955,9.53,2.174,9.655c0.219,0.125,1.876,1.248,1.707,1.239
			C3.6,10.878,2.149,11.223,1.93,11.227s-0.362,0.175-0.386,0.463c-0.045,0.539-0.024,0.539-0.024,1.09
			c0.001,0.198,0.004,0.396,0.01,0.591c0.009,0.287,0.266,0.599,0.506,0.712c0.328,0.156,2.011,0.983,1.861,1.059
			c-0.124,0.062-1.646,0.25-1.802,0.255c-0.354,0.011-0.397,0.365-0.356,0.654c0.104,0.725,0.112,0.86,0.3,1.553
			C2.094,17.812,2.277,18,2.465,18.063s2.567,1.034,2.416,1.11c-0.125,0.063-1.551,0.335-1.776,0.345
			c-0.299,0.016-0.268,0.441-0.131,0.75C3.249,20.89,3.12,20.7,3.451,21.254c0.068,0.117,0.374,0.302,0.469,0.322
			c0.188,0.042,2.894,0.802,2.743,0.877c-0.125,0.063-1.571,0.133-1.839,0.148s-0.233,0.416-0.08,0.599
			c0.389,0.463,0.297,0.385,0.718,0.751c0.239,0.208,0.796,0.191,0.833,0.219c0.557,0.088,2.9,0.399,2.758,0.471
			c-0.125,0.063-0.989,0.158-1.813,0.256c-0.261-0.012-0.051,0.351,0.136,0.443c0.466,0.235,0.948,0.41,1.435,0.52
			c0.019,0.004,0.036,0.006,0.053,0.006c0.174,0,1.264,0.104,1.456,0.104c0.247,0,3.592,0.018,5.229,0.026
			c-0.954-0.276-2.227-0.696-3.109-1.239C12.366,24.712,12.176,24.609,11.91,24.631z"/>
	</g>
	<path style="fill:#030104;" d="M24.449,11.798c-0.018-0.295-0.17-0.506-0.385-0.487c-0.005,0.001-0.01,0.012-0.016,0.013
		c-0.031-0.36-0.069-0.717-0.123-1.068c0.006-0.001,0.01,0,0.014-0.002c0.188-0.077,0.301-0.372,0.25-0.658
		c-0.128-0.716-0.3-1.423-0.508-2.099c-0.08-0.271-0.508-0.383-0.508-0.383s-0.202-0.496-0.329-0.8
		c0.004-0.005,0.01-0.003,0.014-0.007c0.16-0.169,0.201-0.503,0.089-0.746c-0.28-0.611-0.599-1.189-0.944-1.719
		c-0.137-0.21-0.653-0.188-0.657-0.18c-0.047-0.078-0.21-0.285-0.399-0.51c0.005-0.009,0.011-0.004,0.015-0.013
		c0.115-0.241,0.077-0.577-0.081-0.749c-0.403-0.434-0.83-0.816-1.271-1.137c-0.178-0.127-0.95-0.014-0.95-0.014l-0.197-0.1
		c0.003-0.008,0.008-0.01,0.009-0.016c0.054-0.285-0.056-0.582-0.243-0.663c-0.473-0.201-0.96-0.342-1.452-0.417
		C16.634,0.015,16.123,0.002,15.735,0c-0.755,0.26-1.482,0.617-2.17,1.065c0.664,0.079-0.837,1.135-0.722,0.516
		c-0.434,0.338-0.847,0.715-1.237,1.129c0.636,0.061-0.547,1.561-0.741,0.866c-0.499,0.646-0.947,1.36-1.336,2.137
		C10.107,5.54,9.41,7.442,9.002,6.906C8.679,7.733,8.422,8.62,8.238,9.563c0.538-0.198,0.284,1.535-0.201,1.286
		C7.953,11.56,7.909,12.3,7.909,13.064c0,0.159,0.002,0.317,0.006,0.474c0.523-0.22,0.777,1.365,0.081,1.379
		c0.093,0.955,0.257,1.859,0.483,2.708c0.318-0.313,1.143,1.062,0.403,1.28c0.277,0.758,0.608,1.466,0.986,2.121
		c0.196-0.375,1.19,0.851,0.623,0.974c0.44,0.624,0.928,1.188,1.452,1.692c0.087-0.357,1.123,0.425,0.717,0.633
		c0.895,0.722,1.876,1.281,2.91,1.671C16.093,25.998,16.439,26,16.439,26c0.527-0.019,0.782-0.078,1.001-0.141
		c0.192-0.056,0.574-0.651,0.574-0.651s0.692-0.033,0.835-0.033c0.043,0,0.086-0.012,0.128-0.036
		c0.456-0.267,0.901-0.596,1.325-0.98c0.168-0.151,0.222-0.481,0.121-0.735c-0.003-0.006-0.008-0.006-0.009-0.012
		c0.199-0.199,0.239-0.248,0.429-0.472c0.002,0.006,0.324,0.04,0.424,0.04c0.081,0,0.165-0.043,0.23-0.13
		c0.373-0.485,0.721-1.022,1.033-1.599c0.123-0.229,0.103-0.565-0.048-0.754c-0.006-0.007-0.013-0.003-0.018-0.009
		c0.143-0.29,0.247-0.484,0.376-0.794c0.004,0.005,0.159-0.014,0.219-0.014c0.123,0,0.24-0.098,0.307-0.271
		c0.244-0.646,0.45-1.329,0.617-2.03c0.066-0.279-0.031-0.586-0.215-0.687c-0.003-0.001-0.006,0.002-0.009,0.001
		c0.071-0.344,0.128-0.695,0.179-1.05c0.005,0.001,0.006,0.009,0.01,0.01c0.021,0.005,0.042,0.007,0.061,0.007
		c0.171,0,0.32-0.185,0.35-0.445c0.083-0.731,0.126-1.481,0.126-2.229C24.484,12.586,24.472,12.189,24.449,11.798z M16.487,21.263
		c-2.725,0-4.934-3.699-4.934-8.26c0-4.563,2.209-8.261,4.934-8.261c2.726,0,4.933,3.698,4.933,8.261
		C21.42,17.563,19.213,21.263,16.487,21.263z"/>
</g>
<g>
</g>
<g>
</g>
<g>
</g>
<g>
</g>
<g>
</g>
<g>
</g>
<g>
</g>
<g>
</g>
<g>
</g>
<g>
</g>
<g>
</g>
<g>
</g>
<g>
</g>
<g>
</g>
<g>
</g>
</svg>
